<?xml version="1.0" encoding="UTF-8" standalone="no"?><svg xmlns="http://www.w3.org/2000/svg" xmlns:xlink="http://www.w3.org/1999/xlink" contentScriptType="application/ecmascript" contentStyleType="text/css" height="363px" preserveAspectRatio="none" style="width:247px;height:363px;" version="1.1" viewBox="0 0 247 363" width="247px" zoomAndPan="magnify"><defs><filter height="300%" id="f1dnso4gif9am" width="300%" x="-1" y="-1"><feGaussianBlur result="blurOut" stdDeviation="2.0"/><feColorMatrix in="blurOut" result="blurOut2" type="matrix" values="0 0 0 0 0 0 0 0 0 0 0 0 0 0 0 0 0 0 .4 0"/><feOffset dx="4.0" dy="4.0" in="blurOut2" result="blurOut3"/><feBlend in="SourceGraphic" in2="blurOut3" mode="normal"/></filter></defs><g><text fill="#000000" font-family="sans-serif" font-size="18" lengthAdjust="spacingAndGlyphs" textLength="114" x="65.5" y="26.708">POST /object</text><ellipse cx="114.5" cy="40.9531" fill="#000000" filter="url(#f1dnso4gif9am)" rx="10" ry="10" style="stroke: none; stroke-width: 1.0;"/><rect fill="#FEFECE" filter="url(#f1dnso4gif9am)" height="33.9688" rx="12.5" ry="12.5" style="stroke: #A80036; stroke-width: 1.5;" width="175" x="27" y="70.9531"/><text fill="#000000" font-family="sans-serif" font-size="12" lengthAdjust="spacingAndGlyphs" textLength="155" x="37" y="92.0918">запрос на Create object</text><polygon fill="#FEFECE" filter="url(#f1dnso4gif9am)" points="102.5,168.9219,126.5,168.9219,138.5,180.9219,126.5,192.9219,102.5,192.9219,90.5,180.9219,102.5,168.9219" style="stroke: #A80036; stroke-width: 1.5;"/><text fill="#000000" font-family="sans-serif" font-size="11" lengthAdjust="spacingAndGlyphs" textLength="18" x="105.5" y="184.73">...?</text><text fill="#000000" font-family="sans-serif" font-size="11" lengthAdjust="spacingAndGlyphs" textLength="20" x="70.5" y="178.3276">yes</text><text fill="#000000" font-family="sans-serif" font-size="11" lengthAdjust="spacingAndGlyphs" textLength="14" x="138.5" y="178.3276">no</text><rect fill="#FEFECE" filter="url(#f1dnso4gif9am)" height="33.9688" rx="12.5" ry="12.5" style="stroke: #A80036; stroke-width: 1.5;" width="32" x="64.5" y="202.9219"/><text fill="#000000" font-family="sans-serif" font-size="12" lengthAdjust="spacingAndGlyphs" textLength="12" x="74.5" y="224.0605">...</text><rect fill="#FEFECE" filter="url(#f1dnso4gif9am)" height="33.9688" rx="12.5" ry="12.5" style="stroke: #A80036; stroke-width: 1.5;" width="32" x="132.5" y="202.9219"/><text fill="#000000" font-family="sans-serif" font-size="12" lengthAdjust="spacingAndGlyphs" textLength="12" x="142.5" y="224.0605">...</text><polygon fill="#FEFECE" filter="url(#f1dnso4gif9am)" points="114.5,242.8906,126.5,254.8906,114.5,266.8906,102.5,254.8906,114.5,242.8906" style="stroke: #A80036; stroke-width: 1.5;"/><polygon fill="#FEFECE" filter="url(#f1dnso4gif9am)" points="114.5,124.9219,126.5,136.9219,114.5,148.9219,102.5,136.9219,114.5,124.9219" style="stroke: #A80036; stroke-width: 1.5;"/><polygon fill="#FEFECE" filter="url(#f1dnso4gif9am)" points="32,286.8906,197,286.8906,209,298.8906,197,310.8906,32,310.8906,20,298.8906,32,286.8906" style="stroke: #A80036; stroke-width: 1.5;"/><text fill="#000000" font-family="sans-serif" font-size="11" lengthAdjust="spacingAndGlyphs" textLength="165" x="32" y="302.6987">все документы проверены?</text><ellipse cx="114.5" cy="341.8906" fill="#FFFFFF" filter="url(#f1dnso4gif9am)" rx="11" ry="11" style="stroke: #000000; stroke-width: 1.0;"/><ellipse cx="114.5" cy="341.8906" fill="#000000" rx="6" ry="6" style="stroke: #7F7F7F; stroke-width: 1.0;"/><line style="stroke: #A80036; stroke-width: 1.5;" x1="114.5" x2="114.5" y1="50.9531" y2="70.9531"/><polygon fill="#A80036" points="110.5,60.9531,114.5,70.9531,118.5,60.9531,114.5,64.9531" style="stroke: #A80036; stroke-width: 1.0;"/><line style="stroke: #A80036; stroke-width: 1.5;" x1="90.5" x2="80.5" y1="180.9219" y2="180.9219"/><line style="stroke: #A80036; stroke-width: 1.5;" x1="80.5" x2="80.5" y1="180.9219" y2="202.9219"/><polygon fill="#A80036" points="76.5,192.9219,80.5,202.9219,84.5,192.9219,80.5,196.9219" style="stroke: #A80036; stroke-width: 1.0;"/><line style="stroke: #A80036; stroke-width: 1.5;" x1="138.5" x2="148.5" y1="180.9219" y2="180.9219"/><line style="stroke: #A80036; stroke-width: 1.5;" x1="148.5" x2="148.5" y1="180.9219" y2="202.9219"/><polygon fill="#A80036" points="144.5,192.9219,148.5,202.9219,152.5,192.9219,148.5,196.9219" style="stroke: #A80036; stroke-width: 1.0;"/><line style="stroke: #A80036; stroke-width: 1.5;" x1="80.5" x2="80.5" y1="236.8906" y2="254.8906"/><line style="stroke: #A80036; stroke-width: 1.5;" x1="80.5" x2="102.5" y1="254.8906" y2="254.8906"/><polygon fill="#A80036" points="92.5,250.8906,102.5,254.8906,92.5,258.8906,96.5,254.8906" style="stroke: #A80036; stroke-width: 1.0;"/><line style="stroke: #A80036; stroke-width: 1.5;" x1="148.5" x2="148.5" y1="236.8906" y2="254.8906"/><line style="stroke: #A80036; stroke-width: 1.5;" x1="148.5" x2="126.5" y1="254.8906" y2="254.8906"/><polygon fill="#A80036" points="136.5,250.8906,126.5,254.8906,136.5,258.8906,132.5,254.8906" style="stroke: #A80036; stroke-width: 1.0;"/><line style="stroke: #A80036; stroke-width: 1.5;" x1="114.5" x2="114.5" y1="148.9219" y2="168.9219"/><polygon fill="#A80036" points="110.5,158.9219,114.5,168.9219,118.5,158.9219,114.5,162.9219" style="stroke: #A80036; stroke-width: 1.0;"/><line style="stroke: #A80036; stroke-width: 1.5;" x1="209" x2="221" y1="298.8906" y2="298.8906"/><polygon fill="#A80036" points="217,227.9063,221,217.9063,225,227.9063,221,223.9063" style="stroke: #A80036; stroke-width: 1.5;"/><line style="stroke: #A80036; stroke-width: 1.5;" x1="221" x2="221" y1="136.9219" y2="298.8906"/><line style="stroke: #A80036; stroke-width: 1.5;" x1="221" x2="126.5" y1="136.9219" y2="136.9219"/><polygon fill="#A80036" points="136.5,132.9219,126.5,136.9219,136.5,140.9219,132.5,136.9219" style="stroke: #A80036; stroke-width: 1.0;"/><line style="stroke: #A80036; stroke-width: 1.5;" x1="114.5" x2="114.5" y1="266.8906" y2="286.8906"/><polygon fill="#A80036" points="110.5,276.8906,114.5,286.8906,118.5,276.8906,114.5,280.8906" style="stroke: #A80036; stroke-width: 1.0;"/><line style="stroke: #A80036; stroke-width: 1.5;" x1="114.5" x2="114.5" y1="104.9219" y2="124.9219"/><polygon fill="#A80036" points="110.5,114.9219,114.5,124.9219,118.5,114.9219,114.5,118.9219" style="stroke: #A80036; stroke-width: 1.0;"/><line style="stroke: #A80036; stroke-width: 1.5;" x1="114.5" x2="114.5" y1="310.8906" y2="330.8906"/><polygon fill="#A80036" points="110.5,320.8906,114.5,330.8906,118.5,320.8906,114.5,324.8906" style="stroke: #A80036; stroke-width: 1.0;"/><!--MD5=[8cdd6fffe003fa948f76253472d23961]
@startuml

title POST /object
start
:запрос на Create object;
repeat
    if (...?) then (yes)
        :...;
    else (no)
        :...;
    endif
repeat while (все документы проверены?)
stop

@enduml

PlantUML version 1.2020.06(Sun Apr 05 12:38:32 UTC 2020)
(APACHE source distribution)
Java Runtime: OpenJDK Runtime Environment
JVM: OpenJDK 64-Bit Server VM
Java Version: 11.0.2+9
Operating System: Linux
Default Encoding: UTF-8
Language: en
Country: US
--></g></svg>