<?xml version="1.0" encoding="UTF-8" standalone="no"?><svg xmlns="http://www.w3.org/2000/svg" xmlns:xlink="http://www.w3.org/1999/xlink" contentScriptType="application/ecmascript" contentStyleType="text/css" height="364px" preserveAspectRatio="none" style="width:232px;height:364px;" version="1.1" viewBox="0 0 232 364" width="232px" zoomAndPan="magnify"><defs><filter height="300%" id="f1dnso4gif9am" width="300%" x="-1" y="-1"><feGaussianBlur result="blurOut" stdDeviation="2.0"/><feColorMatrix in="blurOut" result="blurOut2" type="matrix" values="0 0 0 0 0 0 0 0 0 0 0 0 0 0 0 0 0 0 .4 0"/><feOffset dx="4.0" dy="4.0" in="blurOut2" result="blurOut3"/><feBlend in="SourceGraphic" in2="blurOut3" mode="normal"/></filter></defs><g><text fill="#000000" font-family="sans-serif" font-size="18" lengthAdjust="spacingAndGlyphs" textLength="113" x="58.5" y="27.4023">POST /object</text><ellipse cx="107" cy="41.1992" fill="#000000" filter="url(#f1dnso4gif9am)" rx="10" ry="10" style="stroke: none; stroke-width: 1.0;"/><rect fill="#FEFECE" filter="url(#f1dnso4gif9am)" height="34.1328" rx="12.5" ry="12.5" style="stroke: #A80036; stroke-width: 1.5;" width="163" x="25.5" y="71.1992"/><text fill="#000000" font-family="sans-serif" font-size="12" lengthAdjust="spacingAndGlyphs" textLength="143" x="35.5" y="92.8008">запрос на Create object</text><polygon fill="#FEFECE" filter="url(#f1dnso4gif9am)" points="95,169.332,119,169.332,131,181.332,119,193.332,95,193.332,83,181.332,95,169.332" style="stroke: #A80036; stroke-width: 1.5;"/><text fill="#000000" font-family="sans-serif" font-size="11" lengthAdjust="spacingAndGlyphs" textLength="14" x="100" y="185.4893">...?</text><text fill="#000000" font-family="sans-serif" font-size="11" lengthAdjust="spacingAndGlyphs" textLength="18" x="65" y="179.0117">yes</text><text fill="#000000" font-family="sans-serif" font-size="11" lengthAdjust="spacingAndGlyphs" textLength="14" x="131" y="179.0117">no</text><rect fill="#FEFECE" filter="url(#f1dnso4gif9am)" height="34.1328" rx="12.5" ry="12.5" style="stroke: #A80036; stroke-width: 1.5;" width="32" x="57" y="203.332"/><text fill="#000000" font-family="sans-serif" font-size="12" lengthAdjust="spacingAndGlyphs" textLength="12" x="67" y="224.9336">...</text><rect fill="#FEFECE" filter="url(#f1dnso4gif9am)" height="34.1328" rx="12.5" ry="12.5" style="stroke: #A80036; stroke-width: 1.5;" width="32" x="125" y="203.332"/><text fill="#000000" font-family="sans-serif" font-size="12" lengthAdjust="spacingAndGlyphs" textLength="12" x="135" y="224.9336">...</text><polygon fill="#FEFECE" filter="url(#f1dnso4gif9am)" points="107,243.4648,119,255.4648,107,267.4648,95,255.4648,107,243.4648" style="stroke: #A80036; stroke-width: 1.5;"/><polygon fill="#FEFECE" filter="url(#f1dnso4gif9am)" points="107,125.332,119,137.332,107,149.332,95,137.332,107,125.332" style="stroke: #A80036; stroke-width: 1.5;"/><polygon fill="#FEFECE" filter="url(#f1dnso4gif9am)" points="32,287.4648,182,287.4648,194,299.4648,182,311.4648,32,311.4648,20,299.4648,32,287.4648" style="stroke: #A80036; stroke-width: 1.5;"/><text fill="#000000" font-family="sans-serif" font-size="11" lengthAdjust="spacingAndGlyphs" textLength="150" x="32" y="303.6221">все документы проверены?</text><ellipse cx="107" cy="342.4648" fill="#FFFFFF" filter="url(#f1dnso4gif9am)" rx="11" ry="11" style="stroke: #000000; stroke-width: 1.0;"/><ellipse cx="107" cy="342.4648" fill="#000000" rx="6" ry="6" style="stroke: #7F7F7F; stroke-width: 1.0;"/><line style="stroke: #A80036; stroke-width: 1.5;" x1="107" x2="107" y1="51.1992" y2="71.1992"/><polygon fill="#A80036" points="103,61.1992,107,71.1992,111,61.1992,107,65.1992" style="stroke: #A80036; stroke-width: 1.0;"/><line style="stroke: #A80036; stroke-width: 1.5;" x1="83" x2="73" y1="181.332" y2="181.332"/><line style="stroke: #A80036; stroke-width: 1.5;" x1="73" x2="73" y1="181.332" y2="203.332"/><polygon fill="#A80036" points="69,193.332,73,203.332,77,193.332,73,197.332" style="stroke: #A80036; stroke-width: 1.0;"/><line style="stroke: #A80036; stroke-width: 1.5;" x1="131" x2="141" y1="181.332" y2="181.332"/><line style="stroke: #A80036; stroke-width: 1.5;" x1="141" x2="141" y1="181.332" y2="203.332"/><polygon fill="#A80036" points="137,193.332,141,203.332,145,193.332,141,197.332" style="stroke: #A80036; stroke-width: 1.0;"/><line style="stroke: #A80036; stroke-width: 1.5;" x1="73" x2="73" y1="237.4648" y2="255.4648"/><line style="stroke: #A80036; stroke-width: 1.5;" x1="73" x2="95" y1="255.4648" y2="255.4648"/><polygon fill="#A80036" points="85,251.4648,95,255.4648,85,259.4648,89,255.4648" style="stroke: #A80036; stroke-width: 1.0;"/><line style="stroke: #A80036; stroke-width: 1.5;" x1="141" x2="141" y1="237.4648" y2="255.4648"/><line style="stroke: #A80036; stroke-width: 1.5;" x1="141" x2="119" y1="255.4648" y2="255.4648"/><polygon fill="#A80036" points="129,251.4648,119,255.4648,129,259.4648,125,255.4648" style="stroke: #A80036; stroke-width: 1.0;"/><line style="stroke: #A80036; stroke-width: 1.5;" x1="107" x2="107" y1="149.332" y2="169.332"/><polygon fill="#A80036" points="103,159.332,107,169.332,111,159.332,107,163.332" style="stroke: #A80036; stroke-width: 1.0;"/><line style="stroke: #A80036; stroke-width: 1.5;" x1="194" x2="206" y1="299.4648" y2="299.4648"/><polygon fill="#A80036" points="202,228.3984,206,218.3984,210,228.3984,206,224.3984" style="stroke: #A80036; stroke-width: 1.5;"/><line style="stroke: #A80036; stroke-width: 1.5;" x1="206" x2="206" y1="137.332" y2="299.4648"/><line style="stroke: #A80036; stroke-width: 1.5;" x1="206" x2="119" y1="137.332" y2="137.332"/><polygon fill="#A80036" points="129,133.332,119,137.332,129,141.332,125,137.332" style="stroke: #A80036; stroke-width: 1.0;"/><line style="stroke: #A80036; stroke-width: 1.5;" x1="107" x2="107" y1="267.4648" y2="287.4648"/><polygon fill="#A80036" points="103,277.4648,107,287.4648,111,277.4648,107,281.4648" style="stroke: #A80036; stroke-width: 1.0;"/><line style="stroke: #A80036; stroke-width: 1.5;" x1="107" x2="107" y1="105.332" y2="125.332"/><polygon fill="#A80036" points="103,115.332,107,125.332,111,115.332,107,119.332" style="stroke: #A80036; stroke-width: 1.0;"/><line style="stroke: #A80036; stroke-width: 1.5;" x1="107" x2="107" y1="311.4648" y2="331.4648"/><polygon fill="#A80036" points="103,321.4648,107,331.4648,111,321.4648,107,325.4648" style="stroke: #A80036; stroke-width: 1.0;"/><!--MD5=[2eb5a1e277de4b8bf6c4d5a7ac45e551]
@startuml

title POST /object
start
:запрос на Create object;
repeat
    if (...?) then (yes)
        :...;
    else (no)
        :...;
    endif
repeat while (все документы проверены?)
stop

@enduml

PlantUML version 1.2020.06(Sun Apr 05 15:38:32 MSK 2020)
(APACHE source distribution)
Java Runtime: Java(TM) SE Runtime Environment
JVM: Java HotSpot(TM) 64-Bit Server VM
Java Version: 11.0.5+10-LTS
Operating System: Mac OS X
Default Encoding: UTF-8
Language: en
Country: US
--></g></svg>